HIERARCHY
ROOT Hips
{
  OFFSET 1.73907 43.2358 0.0522707
  CHANNELS 6 Xposition Yposition Zposition Zrotation Xrotation Yrotation
  JOINT Bip01_Pelvis
  {
    OFFSET 0 0 0
    CHANNELS 6 Xposition Yposition Zposition Zrotation Xrotation Yrotation
    JOINT BN_Tail_01
    {
      OFFSET -2.28979 -2.39917 0
      CHANNELS 6 Xposition Yposition Zposition Zrotation Xrotation Yrotation
      JOINT BN_Tail_02
      {
        OFFSET 9.67405 0 0
        CHANNELS 6 Xposition Yposition Zposition Zrotation Xrotation Yrotation
        JOINT BN_Tail_03
        {
          OFFSET 10.5192 0 -1.14441e-005
          CHANNELS 6 Xposition Yposition Zposition Zrotation Xrotation Yrotation
          JOINT BN_Tail_04
          {
            OFFSET 8.16754 0 0
            CHANNELS 6 Xposition Yposition Zposition Zrotation Xrotation Yrotation
            End Site
            {
              OFFSET 0 0 0
            }
          }
        }
      }
    }
    JOINT Bip01_Spine
    {
      OFFSET 2.25317 -0.00479889 0
      CHANNELS 6 Xposition Yposition Zposition Zrotation Xrotation Yrotation
      JOINT Bip01_R_Thigh
      {
        OFFSET -2.32652 -0.461891 -2.25534
        CHANNELS 6 Xposition Yposition Zposition Zrotation Xrotation Yrotation
        JOINT Bip01_R_Calf
        {
          OFFSET 9.47902 0 0
          CHANNELS 6 Xposition Yposition Zposition Zrotation Xrotation Yrotation
          JOINT Bip01_R_Foot
          {
            OFFSET 8.42616 0 0
            CHANNELS 6 Xposition Yposition Zposition Zrotation Xrotation Yrotation
            JOINT Bip01_R_Toe1
            {
              OFFSET 1.4015 3.97627 -1.33795
              CHANNELS 6 Xposition Yposition Zposition Zrotation Xrotation Yrotation
              JOINT Bip01_R_Toe11
              {
                OFFSET 2.94553 0 0
                CHANNELS 6 Xposition Yposition Zposition Zrotation Xrotation Yrotation
                JOINT Bip01_R_Toe1Nub
                {
                  OFFSET 2.52656 0 0
                  CHANNELS 6 Xposition Yposition Zposition Zrotation Xrotation Yrotation
                  End Site
                  {
                    OFFSET 0 0 0
                  }
                }
              }
            }
            JOINT Bip01_R_Toe0
            {
              OFFSET 2.09729 6.93129 0.0277901
              CHANNELS 6 Xposition Yposition Zposition Zrotation Xrotation Yrotation
              JOINT Bip01_R_Toe01
              {
                OFFSET 3.0714 0 0
                CHANNELS 6 Xposition Yposition Zposition Zrotation Xrotation Yrotation
                JOINT Bip01_R_Toe0Nub
                {
                  OFFSET 3.37999 0 0
                  CHANNELS 6 Xposition Yposition Zposition Zrotation Xrotation Yrotation
                  End Site
                  {
                    OFFSET 0 0 0
                  }
                }
              }
            }
          }
        }
      }
      JOINT Bip01_L_Thigh
      {
        OFFSET -2.07803 -0.462101 2.48614
        CHANNELS 6 Xposition Yposition Zposition Zrotation Xrotation Yrotation
        JOINT Bip01_L_Calf
        {
          OFFSET 9.47902 0 0
          CHANNELS 6 Xposition Yposition Zposition Zrotation Xrotation Yrotation
          JOINT Bip01_L_Foot
          {
            OFFSET 8.42617 0 0
            CHANNELS 6 Xposition Yposition Zposition Zrotation Xrotation Yrotation
            JOINT Bip01_L_Toe1
            {
              OFFSET 1.40151 3.97627 1.33796
              CHANNELS 6 Xposition Yposition Zposition Zrotation Xrotation Yrotation
              JOINT Bip01_L_Toe11
              {
                OFFSET 2.94554 0 0
                CHANNELS 6 Xposition Yposition Zposition Zrotation Xrotation Yrotation
                JOINT Bip01_L_Toe1Nub
                {
                  OFFSET 2.52656 0 0
                  CHANNELS 6 Xposition Yposition Zposition Zrotation Xrotation Yrotation
                  End Site
                  {
                    OFFSET 0 0 0
                  }
                }
              }
            }
            JOINT Bip01_L_Toe0
            {
              OFFSET 2.0973 6.93128 -0.0277834
              CHANNELS 6 Xposition Yposition Zposition Zrotation Xrotation Yrotation
              JOINT Bip01_L_Toe01
              {
                OFFSET 3.07141 0 0
                CHANNELS 6 Xposition Yposition Zposition Zrotation Xrotation Yrotation
                JOINT Bip01_L_Toe0Nub
                {
                  OFFSET 3.37999 0 0
                  CHANNELS 6 Xposition Yposition Zposition Zrotation Xrotation Yrotation
                  End Site
                  {
                    OFFSET 0 0 0
                  }
                }
              }
            }
          }
        }
      }
      JOINT Bip01_Spine1
      {
        OFFSET 6.17162 -0.00484467 0
        CHANNELS 6 Xposition Yposition Zposition Zrotation Xrotation Yrotation
        JOINT BN_R_Clavicle_01
        {
          OFFSET 6.15897 -2.02444 -2.78435
          CHANNELS 6 Xposition Yposition Zposition Zrotation Xrotation Yrotation
          JOINT BN_R_UpperArm_01
          {
            OFFSET 3.43915 0 0
            CHANNELS 6 Xposition Yposition Zposition Zrotation Xrotation Yrotation
            JOINT BN_R__Forearm_01
            {
              OFFSET 10.2529 0 0
              CHANNELS 6 Xposition Yposition Zposition Zrotation Xrotation Yrotation
              JOINT BN_R_Hand_01
              {
                OFFSET 16.2051 0 0
                CHANNELS 6 Xposition Yposition Zposition Zrotation Xrotation Yrotation
                JOINT BN_R_Finger_07
                {
                  OFFSET 2.2539 2.19923 0.192043
                  CHANNELS 6 Xposition Yposition Zposition Zrotation Xrotation Yrotation
                  End Site
                  {
                    OFFSET 0 0 0
                  }
                }
                JOINT BN_R_Finger_01
                {
                  OFFSET 2.17806 -1.99631 -0.219296
                  CHANNELS 6 Xposition Yposition Zposition Zrotation Xrotation Yrotation
                  End Site
                  {
                    OFFSET 0 0 0
                  }
                }
                JOINT BN_R_Finger_05
                {
                  OFFSET 3.30715 1.42802 0.17391
                  CHANNELS 6 Xposition Yposition Zposition Zrotation Xrotation Yrotation
                  End Site
                  {
                    OFFSET 0 0 0
                  }
                }
                JOINT BN_R_Finger_03
                {
                  OFFSET 3.93641 -0.769831 0.580946
                  CHANNELS 6 Xposition Yposition Zposition Zrotation Xrotation Yrotation
                  End Site
                  {
                    OFFSET 0 0 0
                  }
                }
              }
            }
          }
        }
        JOINT BN_L_Clavicle_01
        {
          OFFSET 6.15897 -2.02445 2.78458
          CHANNELS 6 Xposition Yposition Zposition Zrotation Xrotation Yrotation
          JOINT BN_L_UpperArm_01
          {
            OFFSET 3.43915 0 0
            CHANNELS 6 Xposition Yposition Zposition Zrotation Xrotation Yrotation
            JOINT BN_L__Forearm_01
            {
              OFFSET 10.2529 0 0
              CHANNELS 6 Xposition Yposition Zposition Zrotation Xrotation Yrotation
              JOINT BN_L_Hand_01
              {
                OFFSET 16.2051 0 0
                CHANNELS 6 Xposition Yposition Zposition Zrotation Xrotation Yrotation
                JOINT BN_L_Finger_05
                {
                  OFFSET 3.30715 -1.42803 0.173891
                  CHANNELS 6 Xposition Yposition Zposition Zrotation Xrotation Yrotation
                  End Site
                  {
                    OFFSET 0 0 0
                  }
                }
                JOINT BN_L_Finger_07
                {
                  OFFSET 2.2539 -2.19925 0.19203
                  CHANNELS 6 Xposition Yposition Zposition Zrotation Xrotation Yrotation
                  End Site
                  {
                    OFFSET 0 0 0
                  }
                }
                JOINT BN_L_Finger_01
                {
                  OFFSET 2.17804 1.99629 -0.219303
                  CHANNELS 6 Xposition Yposition Zposition Zrotation Xrotation Yrotation
                  End Site
                  {
                    OFFSET 0 0 0
                  }
                }
                JOINT BN_L_Finger_03
                {
                  OFFSET 3.9364 0.769825 0.580943
                  CHANNELS 6 Xposition Yposition Zposition Zrotation Xrotation Yrotation
                  End Site
                  {
                    OFFSET 0 0 0
                  }
                }
              }
            }
          }
        }
        JOINT Bip01_Neck
        {
          OFFSET 7.02381 -0.81237 0
          CHANNELS 6 Xposition Yposition Zposition Zrotation Xrotation Yrotation
          JOINT Bip01_Head
          {
            OFFSET 1.54249 1.14441e-005 0
            CHANNELS 6 Xposition Yposition Zposition Zrotation Xrotation Yrotation
            JOINT BN_Mouth_01
            {
              OFFSET 2.32836 0.166542 0
              CHANNELS 6 Xposition Yposition Zposition Zrotation Xrotation Yrotation
              End Site
              {
                OFFSET 0 0 0
              }
            }
            JOINT BN_R_Ear_01
            {
              OFFSET 3.4208 -0.773972 -2.25959
              CHANNELS 6 Xposition Yposition Zposition Zrotation Xrotation Yrotation
              End Site
              {
                OFFSET 0 0 0
              }
            }
            JOINT BN_L_Ear_01
            {
              OFFSET 3.4208 -0.773976 2.25975
              CHANNELS 6 Xposition Yposition Zposition Zrotation Xrotation Yrotation
              End Site
              {
                OFFSET 0 0 0
              }
            }
            JOINT Bip01_HeadNub
            {
              OFFSET 6.74789 0 0
              CHANNELS 6 Xposition Yposition Zposition Zrotation Xrotation Yrotation
              End Site
              {
                OFFSET 0 0 0
              }
            }
          }
        }
      }
    }
  }
}
MOTION
Frames:	4
Frame Time:	0.0333333
3.37288 66.0625 0.111999 9.68977 -87.0344 18.7108 4.76837e-007 0 -1.42109e-014 -89.9985 -0.00148264 -93.5347 -2.28978 -2.39919 5.96046e-008 -109.845 88.6786 -65.1919 9.67405 0 9.53674e-007 11.5418 0.932276 7.64487 10.5192 9.53674e-007 -1.90735e-006 16.2161 -0.418567 17.4461 8.16752 1.90735e-006 3.8147e-006 18.9388 1.83821 29.4361 2.25281 -0.00395823 -0.139342 36.2762 3.20374 3.6084 -1.6661 1.20938 -2.4156 -68.4774 -1.66284 166.764 9.47902 -3.8147e-006 0 -94.5796 -6.77408e-007 8.86953e-007 8.42616 7.10543e-015 0 -43.2393 -3.30101 -0.480686 1.40146 3.97644 -1.33748 85.448 -41.301 29.1432 2.94553 3.8147e-006 7.10543e-015 -18.2943 -7.07743e-007 1.18474e-005 2.52655 3.8147e-006 -7.10543e-015 -2.31809e-006 1.01206e-005 3.64556e-007 2.09712 6.93134 0.0285978 65.1797 1.39045e-005 -5.34395e-006 3.0714 -3.8147e-006 -4.76837e-007 -8.31656 0.00152179 -0.0209175 3.37999 3.8147e-006 -0.000898838 -8.74561e-007 9.77128e-006 -2.19335e-007 -1.96358 1.47475 2.31549 -51.5088 -5.86179 177.465 9.47901 0 0 -55.8964 4.85534e-006 8.31883e-006 8.42617 0 0 -38.5276 -2.6295 -1.13774 1.40146 3.9762 1.3382 71.6316 45.8523 -19.6046 2.94554 -0.000860214 -0.000804901 -20.3839 -0.00556977 0.0309736 2.52657 0.000787735 0.000793457 -179.965 0.00205064 0.0179104 2.09728 6.9313 -0.0273738 54.2556 5.21535e-008 -1.05551e-007 3.07141 -1.90735e-006 -8.88179e-016 -20.3732 0.00122445 -0.00687868 3.38 0 -4.76837e-007 179.961 -0.001901 -0.00725316 6.17424 -0.00452423 -8.88179e-016 22.44 2.93276 -6.47265 6.15898 -2.02443 -2.78435 -176.71 15.4541 77.3699 3.43915 -7.6294e-006 7.10543e-015 176.05 60.6107 -135.117 10.2529 -2.28882e-005 -5.72205e-006 -28.681 -6.96477 -1.15704 16.2051 3.8147e-006 -3.8147e-006 -11.3246 -0.859099 2.88483 2.25394 2.19923 0.192019 68.7011 0.537907 0.297406 2.17808 -1.99631 -0.219315 -71.0951 -0.181167 -8.38054 3.30718 1.42802 0.173882 21.8163 1.0949 -18.4417 3.93642 -0.769833 0.58092 -0.71341 0.492455 -19.6179 6.15897 -2.02446 2.78458 2.37228 11.5286 -101.413 3.43915 0 3.8147e-006 148.777 -59.8729 162.392 10.2529 0 3.8147e-006 19.97 -1.02178 5.48 16.2051 -3.8147e-006 -3.8147e-006 8.1508 6.71951 9.60975 3.30713 -1.42802 0.173901 -21.8153 -1.07938 -22.9413 2.25389 -2.19924 0.192037 -68.6884 -0.541537 1.29463 2.17803 1.9963 -0.219301 71.1105 0.17883 -13.3799 3.93638 0.769833 0.580949 0.590055 -2.63942 -29.124 7.02382 -0.812382 0 10.998 -7.25137e-007 -3.74501e-009 1.54249 -7.6294e-006 8.88179e-016 -55.46 -7.25579 -2.0413 2.10593 -0.356748 0.0332334 -98.6689 0.0364227 179.969 3.4208 -0.773963 -2.25959 154.488 1.41701 -175.62 3.4208 -0.773973 2.25975 -24.6135 1.20829 -17.7841 6.74789 1.90735e-006 0 6.07807e-007 -5.98431e-008 1.96304e-008 
3.32367 65.7417 0.114957 3.43929 -87.0905 12.3128 4.76837e-007 -4.44089e-016 0 -89.9985 -0.00146474 -93.5347 -2.28978 -2.39919 5.96046e-008 -154.106 89.2978 -19.5894 9.67405 1.60982e-015 9.53674e-007 12.1498 1.34495 5.89853 10.5192 9.53674e-007 -1.90735e-006 17.4237 -1.06849 15.9304 8.16752 1.90735e-006 3.8147e-006 20.7432 1.46159 27.2542 2.25281 -0.00395823 -0.139342 35.1451 2.89347 3.33651 -1.70362 1.18555 -2.40092 -67.5912 -1.60911 166.694 9.47902 -3.8147e-006 3.55271e-015 -96.1711 -7.50083e-007 9.10625e-007 8.42616 4.9738e-014 -3.55271e-015 -42.893 -3.15993 -0.287205 1.40146 3.97644 -1.33748 85.0009 -41.4855 28.8476 2.94553 3.8147e-006 2.84217e-014 -18.4802 2.17682e-006 3.28528e-006 2.52655 3.8147e-006 -7.10543e-015 -2.31809e-006 1.01206e-005 3.64556e-007 2.09712 6.93134 0.0285978 64.7958 4.86777e-006 -9.55173e-006 3.0714 -3.8147e-006 -4.76837e-007 -8.51486 -0.0015334 -2.21572e-005 3.37999 3.8147e-006 -0.000898838 -8.74561e-007 9.77128e-006 -2.19335e-007 -1.97937 1.42581 2.33298 -49.5946 -5.78937 177.84 9.47901 0 0 -55.4765 4.87541e-006 8.27953e-006 8.42617 0 8.88179e-016 -39.0226 -1.73662 -0.478257 1.40146 3.9762 1.3382 71.5492 45.8727 -19.5455 2.94554 -0.000860214 -0.000804901 -20.4784 0.00521597 0.00194658 2.52657 0.000787735 0.000793457 -179.965 0.00205064 0.0179104 2.09728 6.9313 -0.0273738 53.872 4.50373e-008 -1.48503e-007 3.07141 -1.90735e-006 -2.66454e-015 -20.567 -0.0012364 -0.000254099 3.38 3.55271e-014 -4.76837e-007 179.961 -0.001901 -0.00725316 6.17424 -0.00452423 3.82805e-013 22.6362 2.90833 -6.56303 6.15898 -2.02443 -2.78435 -176.746 15.2654 77.3509 3.43915 -7.6294e-006 -2.20268e-013 -179.627 59.861 -136.87 10.2529 -2.28882e-005 -5.72205e-006 -28.4614 -6.45333 -0.468431 16.2051 3.8147e-006 -3.8147e-006 -11.63 -4.29546 4.83117 2.25394 2.19923 0.192019 68.6967 0.53897 0.730867 2.17808 -1.99631 -0.219315 -71.0777 -0.183035 -7.98841 3.30718 1.42802 0.173882 20.8179 1.04687 -15.4612 3.93642 -0.769833 0.58092 -2.13312 -0.607666 -15.146 6.15897 -2.02446 2.78458 2.37156 11.5154 -101.422 3.43915 2.84217e-014 3.8147e-006 146.186 -57.5495 161.546 10.2529 8.52652e-014 3.8147e-006 18.8848 -2.02502 6.1535 16.2051 -3.8147e-006 -3.8147e-006 9.19746 10.1135 11.7182 3.30713 -1.42802 0.173901 -21.5951 -1.1556 -21.0298 2.25389 -2.19924 0.192037 -68.687 -0.541037 1.46607 2.17803 1.9963 -0.219301 71.1055 0.179072 -12.8954 3.93638 0.769833 0.580949 0.587568 -2.70926 -25.1756 7.02382 -0.812382 5.86526e-011 10.998 -7.10509e-007 -2.95582e-009 1.54249 -7.6294e-006 1.77636e-015 -54.7056 -6.96936 -1.16657 2.10593 -0.356748 0.0332334 -98.4455 0.0218201 179.979 3.4208 -0.773963 -2.25959 154.546 1.39767 -175.515 3.4208 -0.773973 2.25975 -24.6214 1.22892 -18.0887 6.74789 1.90735e-006 -5.55112e-017 6.07807e-007 -5.98431e-008 1.96304e-008 
3.24849 65.3807 0.128191 -3.42374 -87.1107 5.0884 4.76837e-007 4.44089e-016 -1.42109e-014 -89.9985 -0.00146474 -93.5347 -2.28978 -2.39919 5.96046e-008 143.65 88.8353 44.7059 9.67405 1.33227e-015 9.53674e-007 12.6992 1.67417 3.71715 10.5192 9.53674e-007 -1.90735e-006 18.535 -1.50836 13.9219 8.16752 1.90735e-006 3.8147e-006 21.9724 1.03552 23.7971 2.25281 -0.00395823 -0.139342 33.8253 2.53499 3.02112 -1.74668 1.15733 -2.38358 -66.3786 -1.43202 166.741 9.47902 -3.8147e-006 0 -97.4017 -8.10795e-007 9.47125e-007 8.42616 2.13163e-014 5.32907e-015 -42.8711 -2.92106 0.157029 1.40146 3.97644 -1.33748 83.7483 -41.9919 28.0137 2.94553 3.8147e-006 3.55272e-014 -18.9996 -7.07652e-007 1.2012e-005 2.52655 3.8147e-006 2.13163e-014 -2.31809e-006 1.01206e-005 3.64556e-007 2.09712 6.93134 0.0285978 63.7204 5.02609e-006 -9.48961e-006 3.0714 -3.8147e-006 -4.76837e-007 -9.0636 -0.00479594 0.0204167 3.37999 3.8147e-006 -0.000898838 -8.74561e-007 9.77128e-006 -2.19335e-007 -1.9963 1.36801 2.353 -47.4914 -5.752 178.218 9.47901 0 0 -55.0153 4.89733e-006 8.24113e-006 8.42617 0 0 -39.6203 -0.75198 0.219791 1.40146 3.9762 1.3382 71.4684 45.8926 -19.4874 2.94554 -0.000860214 -0.000804901 -21.0523 0.00519299 0.00200684 2.52657 0.000787735 0.000793457 -179.965 0.00205064 0.0179104 2.09728 6.9313 -0.0273738 52.7986 3.13159e-008 -1.94316e-007 3.07141 -1.90735e-006 -6.21725e-015 -21.1092 -0.00836154 0.018197 3.38 7.10543e-015 -4.76837e-007 179.961 -0.001901 -0.00725316 6.17424 -0.00452423 9.47242e-013 23.1574 2.83961 -6.80183 6.15898 -2.02443 -2.78435 -176.831 14.8137 77.3069 3.43915 -7.6294e-006 -2.27374e-013 -177.556 59.7089 -137.303 10.2529 -2.28882e-005 -5.72205e-006 -28.7438 -5.69113 -0.0172358 16.2051 3.8147e-006 -3.8147e-006 -12.7137 -8.02646 7.02955 2.25394 2.19923 0.192019 68.6923 0.539977 1.15591 2.17808 -1.99631 -0.219315 -71.0268 -0.188714 -6.71377 3.30718 1.42802 0.173882 19.7491 0.836125 -11.5344 3.93642 -0.769833 0.58092 -4.15983 -2.08945 -9.25233 6.15897 -2.02446 2.78458 2.36763 11.4747 -101.442 3.43915 9.09495e-013 3.8147e-006 143.256 -55.8537 160.258 10.2529 1.63425e-013 3.8147e-006 18.0129 -3.07344 6.22425 16.2051 -3.8147e-006 -3.8147e-006 11.3981 13.9932 14.013 3.30713 -1.42802 0.173901 -21.3768 -1.22323 -19.1552 2.25389 -2.19924 0.192037 -68.6856 -0.540542 1.63419 2.17803 1.9963 -0.219301 71.104 0.17892 -11.6197 3.93638 0.769833 0.580949 0.593926 -2.78673 -20.0666 7.02382 -0.812382 -3.38627e-011 10.998 -6.99592e-007 -4.20055e-009 1.54249 -7.6294e-006 2.22045e-015 -53.7398 -6.67721 -0.0292994 2.10593 -0.356748 0.0332334 -98.2264 0.00750732 179.989 3.4208 -0.773963 -2.25959 154.603 1.37881 -175.412 3.4208 -0.773973 2.25975 -24.629 1.24919 -18.3874 6.74789 1.90735e-006 -1.11022e-016 6.07807e-007 -5.98431e-008 1.96304e-008 
3.15084 64.9875 0.150472 -10.539 -87.0885 -2.56699 4.76837e-007 4.44089e-016 1.42109e-014 -89.9986 -0.00146663 -93.5347 -2.28978 -2.39919 5.96046e-008 129.809 87.8189 61.2124 9.67405 -1.33227e-015 9.53674e-007 13.1712 1.9379 1.20225 10.5192 9.53674e-007 -1.90735e-006 19.5283 -1.76076 11.4716 8.16752 1.90735e-006 3.8147e-006 22.6352 0.560518 19.2644 2.25281 -0.00395823 -0.139342 32.3552 2.1367 2.66919 -1.79316 1.12304 -2.3639 -64.9091 -1.14997 166.876 9.47902 -3.8147e-006 -3.55271e-015 -98.3334 -1.07706e-005 -4.5713e-007 8.42616 7.10543e-015 3.55271e-015 -43.1216 -2.59322 0.814428 1.40146 3.97644 -1.33748 81.7378 -42.758 26.6587 2.94553 3.8147e-006 8.17125e-014 -19.7837 -0.000200351 0.00056723 2.52655 3.8147e-006 1.06581e-014 -2.31809e-006 1.01206e-005 3.64556e-007 2.09712 6.93134 0.0285979 62.0316 6.0489e-006 -8.94397e-006 3.0714 -3.8147e-006 -4.76837e-007 -9.86017 -0.00448067 0.0169035 3.37999 3.81471e-006 -0.000898838 -8.74561e-007 9.77128e-006 -2.19335e-007 -2.0134 1.30088 2.37527 -45.2518 -5.74278 178.605 9.47901 -1.77636e-015 8.88179e-016 -54.5309 4.91847e-006 8.20457e-006 8.42617 -2.13163e-014 0 -40.3095 0.301343 0.945076 1.40146 3.9762 1.3382 71.3015 45.9336 -19.3675 2.94554 -0.000860214 -0.000804901 -21.8531 -0.0076134 0.0339401 2.52657 0.000787735 0.000793457 -179.965 0.00205063 0.0179104 2.09728 6.9313 -0.0273738 51.1064 1.18828e-008 -2.37671e-007 3.07141 -1.90735e-006 -8.88179e-015 -21.9101 -0.00859599 0.0180308 3.38 0 -4.76837e-007 179.961 -0.001901 -0.00725316 6.17424 -0.00452423 1.71729e-012 23.969 2.72791 -7.17347 6.15898 -2.02443 -2.78435 -176.971 14.1197 77.2626 3.43915 -7.6294e-006 -2.27374e-013 -177.399 60.0659 -136.718 10.2529 -2.28882e-005 -5.72205e-006 -29.4192 -4.72481 0.253464 16.2051 3.8147e-006 -3.8147e-006 -14.2275 -11.9464 9.49396 2.25394 2.19923 0.192019 68.6923 0.540121 1.11769 2.17808 -1.99631 -0.219315 -70.9843 -0.191389 -5.42655 3.30718 1.42802 0.173882 18.6926 0.488896 -6.57627 3.93642 -0.769833 0.58092 -6.42636 -3.86362 -2.20772 6.15897 -2.02446 2.78458 2.36221 11.4031 -101.485 3.43915 9.23706e-013 3.8147e-006 140.158 -54.7309 158.624 10.2529 2.06057e-013 3.8147e-006 17.2933 -4.16043 5.81322 16.2051 -3.8147e-006 -3.8147e-006 14.2965 18.1988 16.5444 3.30713 -1.42802 0.173901 -21.3408 -1.23913 -16.4369 2.25389 -2.19924 0.192037 -68.6877 -0.540088 1.42271 2.17803 1.9963 -0.219301 71.0982 0.180695 -9.45978 3.93638 0.769833 0.580949 0.601568 -2.85063 -13.9991 7.02382 -0.812382 -2.72963e-010 10.998 -6.91039e-007 -7.41769e-009 1.54249 -7.6294e-006 1.77636e-015 -52.6171 -6.35228 1.32234 2.10593 -0.356748 0.0332334 -98.0052 -0.00689697 179.999 3.4208 -0.773963 -2.25959 154.661 1.35985 -175.308 3.4208 -0.773973 2.25975 -24.6366 1.2697 -18.689 6.74789 1.90735e-006 8.88179e-016 6.07807e-007 -5.98431e-008 1.96304e-008 
